<svg xmlns="http://www.w3.org/2000/svg" viewBox="0 0 600 400"><title>1066: an illustrated learning scene</title><defs><linearGradient id="sky" x2="0" y2="1"><stop stop-color="#73c7ef"/><stop offset="1" stop-color="#e5f5ee"/></linearGradient></defs><path fill="url(#sky)" d="M0 0h600v400H0Z"/><circle cx="520" cy="65" r="35" fill="#ffe887"/><g fill="#fff" opacity=".8"><ellipse cx="125" cy="60" rx="85" ry="20"/><ellipse cx="360" cy="55" rx="75" ry="18"/></g><path d="M0 290Q150 190 310 290T600 275V400H0Z" fill="#6f9b47"/><g fill="#eee0bb" stroke="#82735b" stroke-width="4"><path d="M360 150h140v150H360Z"/><path d="M340 100h55v200h-55Z M470 100h55v200h-55Z"/></g><g fill="#aa3a41"><path d="M337 100l30-50 30 50Z M467 100l30-50 30 50Z"/></g><path d="M185 145V290" stroke="#6d482b" stroke-width="7"/><path d="M185 145h100l-25 30 25 30H185Z" fill="#f1c349"/><g fill="#233c68"><path d="M105 255q30-40 60 0v50h-60Z"/><circle cx="135" cy="235" r="20"/></g><path d="M109 275h52v53l-26 22-26-22Z" fill="#da4844" stroke="white" stroke-width="4"/></svg>